<svg data-v-423bf9ae="" xmlns="http://www.w3.org/2000/svg" viewBox="0 0 365 90" class="iconLeft"><!----><!----><!----><g data-v-423bf9ae="" id="eeec0c97-1779-4936-9732-55aef71d67bf" fill="black" transform="matrix(5.808325309113267,0,0,5.808325309113267,107.56050263158775,-2.250724665313868)"><path d="M1.74 13.30L0.42 13.30L0.42 2.98L1.74 2.98ZM4.14 8.79L4.14 13.29L2.83 13.29L2.83 2.97L4.97 2.97C6.72 2.97 7.60 4.02 7.60 5.87C7.60 7.76 6.75 8.79 4.97 8.79ZM4.14 4.30L4.14 7.46L4.97 7.46C5.33 7.46 5.59 7.42 5.71 7.34C5.84 7.25 5.92 7.18 5.96 7.14C6.17 6.93 6.27 6.50 6.27 5.87C6.27 5.19 6.16 4.80 5.95 4.58C5.73 4.35 5.40 4.30 4.97 4.30ZM8.20 5.92C8.20 5.01 8.40 4.30 8.79 3.79C9.09 3.42 9.65 2.98 10.65 2.98C11.66 2.98 12.21 3.42 12.50 3.79C12.91 4.31 13.10 5.01 13.10 5.92L13.10 6.58L11.77 6.58L11.77 5.92C11.77 5.12 11.59 4.69 11.37 4.49C11.13 4.30 10.84 4.30 10.65 4.30C10.44 4.30 10.18 4.30 9.94 4.49C9.70 4.69 9.52 5.12 9.52 5.92L9.52 10.35C9.52 10.95 9.63 11.40 9.84 11.66C9.88 11.73 9.97 11.80 10.09 11.87C10.22 11.94 10.40 11.98 10.65 11.98C11.16 11.98 11.35 11.79 11.47 11.66C11.68 11.38 11.77 10.95 11.77 10.35L11.77 9.69L13.10 9.69L13.10 10.35C13.10 11.26 12.91 11.96 12.50 12.47C12.21 12.85 11.66 13.30 10.65 13.30C10.15 13.30 9.77 13.19 9.46 13.02C9.16 12.87 8.95 12.66 8.79 12.47C8.40 11.97 8.20 11.26 8.20 10.35ZM17.44 10.42L15.65 10.42L14.99 13.30L13.64 13.30L16.02 2.98L17.07 2.98L19.47 13.30L18.10 13.30ZM15.96 9.10L17.14 9.10L16.55 6.57ZM22.50 13.29L21.07 8.34L21.07 13.29L19.75 13.29L19.75 2.97L20.92 2.97L23.00 10.23L25.07 2.97L26.24 2.97L26.24 13.29L24.92 13.29L24.92 8.34L23.49 13.29ZM31.56 2.98L31.56 4.30L28.60 4.30L28.60 7.48L31.56 7.48L31.56 8.79L28.60 8.79L28.60 11.98L31.56 11.98L31.56 13.30L27.29 13.30L27.29 2.98ZM37.28 13.29L35.95 13.29L35.95 10.23C35.95 9.32 35.52 8.88 34.64 8.88L33.81 8.88L33.81 13.29L32.49 13.29L32.49 2.97L34.64 2.97C36.41 2.97 37.25 3.99 37.25 5.91C37.25 6.86 37.04 7.59 36.64 8.08C36.62 8.09 36.60 8.12 36.58 8.15C36.55 8.18 36.53 8.20 36.50 8.22C37.00 8.71 37.28 9.38 37.28 10.23ZM33.81 7.55L34.64 7.55C34.99 7.55 35.24 7.50 35.38 7.42C35.50 7.34 35.59 7.27 35.63 7.22C35.84 6.96 35.94 6.52 35.94 5.91C35.94 5.22 35.83 4.82 35.62 4.58C35.39 4.35 35.07 4.30 34.64 4.30L33.81 4.30ZM42.14 10.42L40.35 10.42L39.69 13.30L38.33 13.30L40.71 2.98L41.76 2.98L44.17 13.30L42.80 13.30ZM40.66 9.10L41.83 9.10L41.24 6.57Z"></path></g><!----><g data-v-423bf9ae="" id="529471f3-8aa9-4416-9421-d77e1eaa204c" transform="matrix(2.8125,0,0,2.8125,0,0)" stroke="none" fill="black"><path d="M6.651 19.325h6.024V32h6.65V19.325h6.024V32H32V0h-6.651v12.675h-6.024V0h-6.65v12.675H6.651V0H0v32h6.651z"></path></g><!----></svg>